<svg fill="#000000" xmlns="http://www.w3.org/2000/svg"  viewBox="0 0 64 64" width="100px" height="100px"><path d="M 13 6 C 9.1482075 6 6 9.1482075 6 13 L 6 51 C 6 54.851793 9.1482075 58 13 58 L 51 58 C 54.851793 58 58 54.851793 58 51 L 58 13 C 58 9.1482075 54.851793 6 51 6 L 13 6 z M 13 8 L 51 8 C 53.768207 8 56 10.231793 56 13 L 56 51 C 56 53.768207 53.768207 56 51 56 L 13 56 C 10.231793 56 8 53.768207 8 51 L 8 13 C 8 10.231793 10.231793 8 13 8 z M 31.234375 11.019531 C 23.199375 11.407531 16.668906 18.132781 16.503906 26.175781 C 16.379906 32.225781 19.734359 37.510969 24.693359 40.167969 C 25.418359 40.555969 26.275625 39.912562 26.140625 39.101562 C 26.089625 38.791562 25.892234 38.530812 25.615234 38.382812 C 20.771234 35.781813 17.687547 30.286516 18.685547 24.228516 C 19.651547 18.362516 24.535359 13.754844 30.443359 13.089844 C 38.576359 12.172844 45.5 18.547 45.5 26.5 C 45.5 31.633 42.613812 36.111812 38.382812 38.382812 C 38.106812 38.530813 37.910375 38.790609 37.859375 39.099609 C 37.721375 39.934609 38.606562 40.544578 39.351562 40.142578 C 44.197563 37.524578 47.5 32.395 47.5 26.5 C 47.5 17.696 40.131375 10.589531 31.234375 11.019531 z M 31.933594 16 C 31.545611 16.002409 31.15425 16.026453 30.757812 16.072266 C 26.106813 16.609266 22.291234 20.298641 21.615234 24.931641 C 21.126234 28.279641 22.232297 31.380609 24.279297 33.599609 C 24.757297 34.118609 25.594688 33.929859 25.804688 33.255859 C 25.820687 33.205859 25.836516 33.156422 25.853516 33.107422 C 25.964516 32.780422 25.899922 32.429875 25.669922 32.171875 C 24.040922 30.349875 23.184375 27.833047 23.609375 25.123047 C 24.187375 21.439047 27.237453 18.513453 30.939453 18.064453 C 36.101453 17.437453 40.5 21.461 40.5 26.5 C 40.5 28.677 39.679078 30.662875 38.330078 32.171875 C 38.100078 32.428875 38.036438 32.780422 38.148438 33.107422 C 38.165438 33.156422 38.181266 33.205859 38.197266 33.255859 C 38.406266 33.926859 39.24175 34.119516 39.71875 33.603516 C 41.44375 31.735516 42.501953 29.241 42.501953 26.5 C 42.501016 20.688438 37.75333 15.96387 31.933594 16 z M 32 21 C 30.75 21 29.685226 21.504756 29.001953 22.273438 C 28.318681 23.042119 28 24.027778 28 25 C 28 25.972222 28.318681 26.957882 29.001953 27.726562 C 29.685226 28.495244 30.75 29 32 29 C 33.25 29 34.314774 28.495244 34.998047 27.726562 C 35.681319 26.957881 36 25.972222 36 25 C 36 24.027778 35.681319 23.042118 34.998047 22.273438 C 34.314774 21.504756 33.25 21 32 21 z M 32 23 C 32.749999 23 33.185226 23.245244 33.501953 23.601562 C 33.81868 23.957881 34 24.472222 34 25 C 34 25.527778 33.81868 26.042118 33.501953 26.398438 C 33.185226 26.754756 32.749999 27 32 27 C 31.250001 27 30.814774 26.754756 30.498047 26.398438 C 30.18132 26.042119 30 25.527778 30 25 C 30 24.472222 30.18132 23.957882 30.498047 23.601562 C 30.814774 23.245244 31.250001 23 32 23 z M 31.542969 31 C 29.090263 31 27.192145 33.239503 27.595703 35.658203 L 28.685547 42.191406 C 28.95349 43.806151 30.364198 45 32 45 C 33.635802 45 35.045195 43.805537 35.314453 42.191406 L 36.404297 35.658203 C 36.807913 33.239153 34.911013 31 32.458984 31 L 31.542969 31 z M 31.542969 33 L 32.458984 33 C 33.712956 33 34.638024 34.091175 34.431641 35.328125 L 33.341797 41.863281 C 33.231055 42.527151 32.672198 43 32 43 C 31.327802 43 30.76826 42.526537 30.658203 41.863281 L 29.570312 35.328125 C 29.36387 34.090825 30.287674 33 31.542969 33 z M 12 48 C 11.448 48 11 48.448 11 49 L 11 51 C 11 51.552 11.448 52 12 52 C 12.552 52 13 51.552 13 51 L 13 49 C 13 48.448 12.552 48 12 48 z M 17 48 C 16.448 48 16 48.448 16 49 L 16 51 C 16 51.552 16.448 52 17 52 C 17.552 52 18 51.552 18 51 L 18 49 C 18 48.448 17.552 48 17 48 z M 22 48 C 21.448 48 21 48.448 21 49 L 21 51 C 21 51.552 21.448 52 22 52 C 22.552 52 23 51.552 23 51 L 23 49 C 23 48.448 22.552 48 22 48 z M 27 48 C 26.448 48 26 48.448 26 49 L 26 51 C 26 51.552 26.448 52 27 52 C 27.552 52 28 51.552 28 51 L 28 49 C 28 48.448 27.552 48 27 48 z M 32 48 C 31.448 48 31 48.448 31 49 L 31 51 C 31 51.552 31.448 52 32 52 C 32.552 52 33 51.552 33 51 L 33 49 C 33 48.448 32.552 48 32 48 z M 37 48 C 36.448 48 36 48.448 36 49 L 36 51 C 36 51.552 36.448 52 37 52 C 37.552 52 38 51.552 38 51 L 38 49 C 38 48.448 37.552 48 37 48 z M 42 48 C 41.448 48 41 48.448 41 49 L 41 51 C 41 51.552 41.448 52 42 52 C 42.552 52 43 51.552 43 51 L 43 49 C 43 48.448 42.552 48 42 48 z M 47 48 C 46.448 48 46 48.448 46 49 L 46 51 C 46 51.552 46.448 52 47 52 C 47.552 52 48 51.552 48 51 L 48 49 C 48 48.448 47.552 48 47 48 z M 52 48 C 51.448 48 51 48.448 51 49 L 51 51 C 51 51.552 51.448 52 52 52 C 52.552 52 53 51.552 53 51 L 53 49 C 53 48.448 52.552 48 52 48 z"/></svg>